<svg width="1024" height="1024" version="1.1" xmlns="http://www.w3.org/2000/svg" desc="Created with imagetracer.js version 1.2.6" ><path fill="rgb(39,56,71)" stroke="rgb(39,56,71)" stroke-width="2" opacity="1" d="M 639.5 228 Q 657.5 226.5 663 237.5 L 667 246.5 L 667 254.5 Q 664.9 264.9 657.5 270 L 647.5 274 L 640.5 274 Q 629.8 271.7 625 263.5 Q 620.2 257.3 622 244.5 Q 624.5 236.5 630.5 232 L 639.5 228 Z M 640 238 L 638 239 L 631 248 Q 630 255 633 259 L 640 264 Q 647 266 651 263 L 657 256 Q 659 247 655 243 Q 651 236 640 238 Z " /><path fill="rgb(39,56,71)" stroke="rgb(39,56,71)" stroke-width="2" opacity="1" d="M 371.5 235 L 399.5 235 L 402 236 L 403 240.5 L 402 243 L 370.5 243 L 368 240.5 L 369 236 L 371.5 235 Z " /><path fill="rgb(39,56,71)" stroke="rgb(39,56,71)" stroke-width="2" opacity="1" d="M 453.5 274 Q 487.8 270.8 501 288.5 L 505 297.5 L 505 577.5 L 506 578.5 L 503.5 583 L 501.5 584 L 300.5 584 Q 287.4 573.6 281 556.5 L 276 534.5 L 276 519.5 L 279 503.5 L 288 483.5 L 306 462.5 L 304 459.5 L 299 441.5 L 299 417.5 Q 304.9 386.4 324.5 369 Q 335.5 358.5 350.5 352 L 367.5 347 L 386 346 L 386 339.5 L 390 323.5 Q 397.9 304.4 412.5 292 Q 428.2 278.2 453.5 274 Z M 458 283 L 436 289 L 420 299 Q 401 313 396 340 Q 394 357 399 367 Q 399 372 396 372 L 390 371 L 386 356 L 373 356 L 363 358 Q 346 363 335 373 Q 324 382 317 395 L 311 409 L 308 425 Q 308 453 321 469 L 332 478 L 331 483 L 328 485 L 324 484 L 311 472 Q 301 480 295 491 L 288 508 L 286 519 L 286 536 L 288 547 Q 292 561 301 572 L 309 576 L 311 575 L 335 546 L 409 448 L 414 443 L 417 443 L 495 544 L 495 482 L 496 481 L 496 467 L 495 466 L 495 452 L 496 451 L 496 436 L 495 435 L 495 336 L 496 335 L 496 306 Q 494 304 495 299 L 493 295 Q 489 287 480 285 L 470 283 L 458 283 Z M 415 456 L 325 573 L 326 574 L 495 574 L 495 562 L 493 559 L 415 456 Z " /><path fill="rgb(39,56,71)" stroke="rgb(39,56,71)" stroke-width="2" opacity="1" d="M 551.5 274 L 573.5 274 L 588.5 278 Q 609.8 286.2 623 302.5 L 635 322.5 L 639 337.5 L 639 344.5 L 640.5 346 L 658.5 347 L 674.5 352 Q 694.1 360.9 707 376.5 Q 724.8 396.2 726 432.5 L 725 433.5 L 724 446.5 L 718 464.5 L 729 474.5 Q 739.6 486.4 745 503.5 L 748 517.5 L 748 535.5 L 744 553.5 L 740 562.5 Q 733.3 575.8 722.5 585 L 719 587.5 L 725 606.5 L 725 627.5 Q 718.3 662.8 694.5 681 Q 684.6 689.1 671.5 694 L 656.5 698 L 643.5 699 L 639.5 698 L 631 718.5 Q 623.8 730.3 613.5 739 Q 602 749 585.5 754 L 568.5 757 L 557.5 757 L 537.5 752 L 525 741.5 L 520 729.5 L 520 299.5 Q 523.3 287.3 532.5 281 Q 540.5 276 551.5 274 Z M 556 283 L 544 286 L 538 289 Q 532 293 530 301 L 530 333 Q 533 331 540 332 L 542 338 L 538 341 L 530 342 L 531 394 L 532 392 L 544 381 L 558 375 L 569 373 L 567 365 L 568 352 L 576 336 L 581 332 Q 586 332 586 336 L 586 340 Q 579 346 577 357 L 577 370 L 581 378 L 581 381 L 577 384 L 574 383 L 562 384 L 546 392 Q 534 400 531 417 Q 530 428 532 436 Q 535 446 541 453 Q 547 459 556 463 L 569 466 L 578 465 L 587 461 L 591 463 L 592 466 L 591 470 L 576 475 L 564 475 L 555 473 L 539 464 L 534 459 L 530 456 L 531 541 L 532 539 Q 544 525 567 521 L 575 522 Q 578 523 577 529 L 576 530 L 568 530 L 559 532 L 546 539 Q 537 546 533 557 L 530 572 L 533 589 L 540 602 Q 548 612 563 615 L 578 615 L 588 611 L 603 602 L 615 599 L 631 599 L 636 600 Q 647 603 655 610 Q 666 618 671 634 L 670 638 Q 669 640 664 639 L 654 623 Q 646 613 632 609 L 613 609 L 609 610 L 588 622 L 576 625 L 564 625 L 553 622 Q 540 617 532 608 Q 533 605 530 606 L 530 638 L 532 648 L 538 659 Q 546 669 561 672 L 573 672 L 589 664 L 594 658 L 600 646 L 606 647 L 607 650 L 601 665 Q 594 675 580 679 L 577 682 L 575 690 L 575 703 L 580 715 L 580 718 Q 579 721 574 720 L 568 713 L 565 700 L 565 693 L 567 682 L 557 681 L 548 678 L 538 672 L 530 666 L 530 729 L 534 738 Q 541 745 554 747 L 574 747 L 583 745 L 605 734 Q 624 720 630 692 L 635 688 L 637 689 L 653 689 L 662 687 Q 677 682 689 673 Q 699 665 706 653 L 713 637 L 716 621 L 715 605 L 710 590 L 700 592 L 690 591 L 685 588 Q 684 582 688 581 Q 693 580 695 582 L 709 581 L 718 576 Q 734 563 738 538 L 738 517 L 734 502 Q 727 483 713 472 Q 710 471 711 474 L 701 484 L 697 485 Q 692 484 693 478 L 698 474 Q 707 467 711 456 L 716 436 L 716 423 L 714 412 Q 709 395 700 384 Q 688 368 669 360 L 653 356 L 639 356 L 635 371 Q 634 373 629 372 L 626 369 L 630 355 L 630 342 L 627 329 L 617 311 Q 606 296 588 288 L 569 283 L 556 283 Z " /><path fill="rgb(39,56,71)" stroke="rgb(39,56,71)" stroke-width="2" opacity="1" d="M 301.5 277 Q 308.6 277.9 311 283.5 Q 311.8 288.3 308.5 289 L 302 286 L 299 280.5 L 301.5 277 Z " /><path fill="rgb(39,56,71)" stroke="rgb(39,56,71)" stroke-width="2" opacity="1" d="M 326.5 278 Q 331.9 276.1 331 279.5 L 332 282.5 L 330 286 L 325.5 289 L 322.5 289 L 320 285.5 L 326.5 278 Z " /><path fill="rgb(39,56,71)" stroke="rgb(39,56,71)" stroke-width="2" opacity="1" d="M 701.5 280 L 730.5 280 L 734 282.5 Q 735.3 287.8 732.5 289 L 700.5 289 L 698 286.5 Q 697 282 699.5 281 L 701.5 280 Z " /><path fill="rgb(39,56,71)" stroke="rgb(39,56,71)" stroke-width="2" opacity="1" d="M 307.5 297 L 311 299.5 Q 312 304 309.5 305 L 307 306.5 Q 307.8 308.8 305.5 308 L 301.5 309 Q 299 308 300 303.5 L 307.5 297 Z " /><path fill="rgb(39,56,71)" stroke="rgb(39,56,71)" stroke-width="2" opacity="1" d="M 322.5 297 Q 328.6 298.4 331 303.5 Q 331.8 308.3 328.5 309 L 325.5 309 L 321 304.5 L 319 300.5 L 322.5 297 Z " /><path fill="rgb(39,56,71)" stroke="rgb(39,56,71)" stroke-width="2" opacity="1" d="M 739.5 326 L 748 333.5 Q 748.5 338.5 744.5 339 L 737 333.5 L 736 328.5 L 739.5 326 Z " /><path fill="rgb(39,56,71)" stroke="rgb(39,56,71)" stroke-width="2" opacity="1" d="M 762.5 327 Q 767 326 768 328.5 L 769 330.5 L 761.5 339 L 757 336.5 L 757 332.5 L 762.5 327 Z " /><path fill="rgb(39,56,71)" stroke="rgb(39,56,71)" stroke-width="2" opacity="1" d="M 743.5 347 L 748 349.5 L 748 352.5 L 742.5 359 L 738.5 360 Q 735.3 359.3 736 354.5 L 739.5 350 L 743.5 347 Z " /><path fill="rgb(39,56,71)" stroke="rgb(39,56,71)" stroke-width="2" opacity="1" d="M 759.5 347 L 761.5 347 L 768 353.5 L 769 355.5 L 766.5 359 L 762.5 359 L 758 354.5 L 756 350.5 L 759.5 347 Z " /><path fill="rgb(39,56,71)" stroke="rgb(39,56,71)" stroke-width="2" opacity="1" d="M 255.5 355 Q 261.9 355.1 264 359.5 L 265 364.5 L 261.5 367 L 254 360.5 L 253 357.5 L 255.5 355 Z " /><path fill="rgb(39,56,71)" stroke="rgb(39,56,71)" stroke-width="2" opacity="1" d="M 281.5 355 Q 285.5 354.5 286 357.5 L 286 360.5 L 279.5 367 Q 274.5 367.5 274 363.5 L 281.5 355 Z " /><path fill="rgb(39,56,71)" stroke="rgb(39,56,71)" stroke-width="2" opacity="1" d="M 260.5 375 Q 265.5 374.5 266 378.5 L 261.5 385 Q 258.9 384.3 260 387 L 255.5 387 L 253 383.5 L 257.5 377 L 260.5 375 Z " /><path fill="rgb(39,56,71)" stroke="rgb(39,56,71)" stroke-width="2" opacity="1" d="M 276.5 376 Q 282.7 375.3 284 379.5 Q 286.6 380.9 286 385.5 L 281.5 388 L 277 384.5 L 274 378.5 L 276.5 376 Z " /><path fill="rgb(39,56,71)" stroke="rgb(39,56,71)" stroke-width="2" opacity="1" d="M 633.5 397 Q 653.9 395.6 664 404.5 Q 665 411 660.5 412 L 657.5 412 L 645.5 407 L 631.5 407 Q 619.3 409.8 612 417.5 Q 611.1 420.5 615.5 419 Q 629 424.5 637 435.5 Q 646.1 446.4 646 466.5 Q 643.5 468 645 473.5 L 639 487.5 L 626.5 501 L 620 504 Q 618.9 506.7 621.5 506 L 629 514.5 L 633 522.5 L 635 533.5 L 636.5 535 Q 645.2 526.7 659 523.5 Q 651.7 516.8 648 506.5 L 646 498.5 L 646 488.5 L 647 486 Q 653.3 484.5 655 488.5 L 657 503.5 Q 660.6 512.9 668.5 518 L 677.5 522 L 681.5 522 L 690.5 525 L 697 529.5 L 698 532.5 L 695.5 536 L 692.5 537 Q 684.4 530.6 669.5 531 L 654.5 535 L 640 545.5 Q 633.5 553 630 563.5 L 622.5 573 Q 613.5 581.5 599.5 585 L 582.5 585 L 569.5 580 L 566 576.5 Q 566.3 571.8 569.5 570 L 572.5 570 L 581.5 575 L 594.5 576 Q 610.9 573.4 619 562.5 Q 627.4 553.9 627 536.5 Q 624.3 519.3 612.5 511 L 604 507 L 603 501.5 L 605.5 499 L 618.5 495 L 629 485.5 Q 636.4 475.9 636 458.5 Q 633.3 441.3 621.5 433 Q 612.8 425.7 596.5 426 L 587.5 428 L 576.5 434 L 573 431.5 L 572 427.5 L 581.5 420 L 590.5 417 L 599.5 417 L 603 413.5 L 604.5 411 L 621.5 400 L 633.5 397 Z " /><path fill="rgb(39,56,71)" stroke="rgb(39,56,71)" stroke-width="2" opacity="1" d="M 354.5 400 L 366.5 401 L 378 408.5 Q 384.2 414.8 385 426.5 L 381 439.5 L 373.5 447 Q 366.8 452.8 352.5 451 Q 342.9 448.6 338 441.5 L 334 433.5 L 333 424.5 L 336 413.5 L 344.5 404 L 354.5 400 Z M 354 410 L 350 412 L 345 417 L 342 426 L 345 436 L 356 442 Q 364 443 369 439 Q 373 435 375 429 Q 375 419 371 414 L 364 410 L 354 410 Z " /><path fill="rgb(39,56,71)" stroke="rgb(39,56,71)" stroke-width="2" opacity="1" d="M 765.5 414 Q 771.8 412.8 773 416.5 L 773 447.5 L 772 450 L 765.5 451 L 763 447.5 L 763 417.5 L 765.5 414 Z " /><path fill="rgb(39,56,71)" stroke="rgb(39,56,71)" stroke-width="2" opacity="1" d="M 301.5 599 L 502.5 599 L 504 600.5 L 505 602.5 L 505 732.5 L 497.5 746 Q 490.5 752.5 479.5 755 L 459.5 757 L 458.5 756 L 450.5 756 L 441.5 754 L 422.5 746 Q 409.2 738.4 400 726.5 L 395 719.5 L 385.5 698 Q 384.2 700.3 379.5 699 L 378.5 698 L 369.5 698 L 360.5 696 L 340.5 687 Q 326.8 678.7 317 666.5 Q 307.1 654.4 302 637.5 L 299 622.5 L 299 604.5 L 301.5 599 Z M 309 609 L 309 624 L 313 640 L 320 654 L 331 668 L 345 678 L 356 684 L 374 689 L 392 688 L 396 694 L 398 704 L 407 720 Q 423 741 455 747 L 472 747 L 481 745 L 489 741 Q 494 737 495 730 L 495 609 L 309 609 Z " /><path fill="rgb(39,56,71)" stroke="rgb(39,56,71)" stroke-width="2" opacity="1" d="M 748.5 646 L 750.5 646 L 758 653.5 L 757 657 L 752.5 658 L 745 650.5 L 746 649.5 L 748.5 646 Z " /><path fill="rgb(39,56,71)" stroke="rgb(39,56,71)" stroke-width="2" opacity="1" d="M 773.5 646 Q 777.3 645.3 778 647.5 Q 778.8 653.3 775.5 655 L 769.5 658 L 766 653.5 L 773.5 646 Z " /><path fill="rgb(39,56,71)" stroke="rgb(39,56,71)" stroke-width="2" opacity="1" d="M 248.5 654 Q 254.1 654.5 256 658.5 L 258 663.5 Q 257.3 666.8 252.5 666 L 246 659.5 L 246 656.5 L 248.5 654 Z " /><path fill="rgb(39,56,71)" stroke="rgb(39,56,71)" stroke-width="2" opacity="1" d="M 273.5 654 Q 277.3 653.3 278 655.5 L 278 659.5 L 271.5 666 Q 267.8 666.8 267 664.5 L 266 661.5 L 271.5 655 L 273.5 654 Z " /><path fill="rgb(39,56,71)" stroke="rgb(39,56,71)" stroke-width="2" opacity="1" d="M 752.5 667 Q 757.3 666.3 758 669.5 L 758 672.5 L 751.5 679 Q 747 680 746 677.5 Q 746.4 669.4 752.5 667 Z " /><path fill="rgb(39,56,71)" stroke="rgb(39,56,71)" stroke-width="2" opacity="1" d="M 769.5 667 L 771.5 667 L 778 672.5 L 779 675.5 L 776.5 679 Q 770.3 679.7 769 675.5 L 766 670.5 L 769.5 667 Z " /><path fill="rgb(39,56,71)" stroke="rgb(39,56,71)" stroke-width="2" opacity="1" d="M 254.5 674 L 258 676.5 L 258 680.5 L 251.5 687 Q 246.8 687.8 246 684.5 L 246 682.5 L 252.5 675 L 254.5 674 Z " /><path fill="rgb(39,56,71)" stroke="rgb(39,56,71)" stroke-width="2" opacity="1" d="M 268.5 675 Q 274.1 675.5 276 679.5 L 278 684.5 Q 277.3 687.8 272.5 687 Q 267.5 684 266 677.5 L 268.5 675 Z " /><path fill="rgb(39,56,71)" stroke="rgb(39,56,71)" stroke-width="2" opacity="1" d="M 718.5 716 Q 722.5 715.5 723 718.5 L 723 721.5 L 716.5 728 Q 712.5 728.5 712 725.5 L 712 722.5 L 716.5 717 L 718.5 716 Z " /><path fill="rgb(39,56,71)" stroke="rgb(39,56,71)" stroke-width="2" opacity="1" d="M 693.5 717 Q 699.7 716.3 701 720.5 L 703 725.5 Q 702.3 728.8 697.5 728 L 691 720.5 L 693.5 717 Z " /><path fill="rgb(39,56,71)" stroke="rgb(39,56,71)" stroke-width="2" opacity="1" d="M 320.5 719 Q 335.7 717.8 341 726.5 Q 345.8 731.7 344 743.5 Q 342.2 750.7 336.5 754 Q 331.7 758.2 321.5 757 Q 313.2 754.9 309 748.5 Q 304.8 743.7 306 733.5 Q 308.1 726.1 313.5 722 L 320.5 719 Z M 322 729 L 320 730 L 315 738 L 317 744 L 322 747 L 331 746 L 334 742 L 333 733 Q 331 727 322 729 Z " /><path fill="rgb(39,56,71)" stroke="rgb(39,56,71)" stroke-width="2" opacity="1" d="M 699.5 737 L 703 738 L 703 743.5 L 701.5 744 L 696.5 750 Q 691.1 751.9 692 748.5 L 691 745.5 L 696.5 739 L 699.5 737 Z " /><path fill="rgb(39,56,71)" stroke="rgb(39,56,71)" stroke-width="2" opacity="1" d="M 715.5 737 L 722 741.5 L 724 745.5 L 721.5 749 L 718.5 749 L 712 742.5 Q 711.3 738.8 713.5 738 L 715.5 737 Z " /><path fill="rgb(39,56,71)" stroke="rgb(39,56,71)" stroke-width="2" opacity="1" d="M 626.5 758 Q 638.9 757.6 644 764.5 Q 648.2 768.8 649 776.5 L 647 785.5 L 640.5 793 L 632.5 796 L 626.5 796 Q 618 794.5 614 788.5 Q 609.5 783 611 771.5 L 617.5 762 L 626.5 758 Z M 628 768 L 625 769 L 621 774 L 622 783 L 627 786 L 635 785 L 639 779 L 638 773 Q 636 767 628 768 Z " /><path fill="rgb(252,253,254)" stroke="rgb(252,253,254)" stroke-width="2" opacity="1" d="M 0 0 L 1024 0 L 1024 1024 L 0 1024 L 0 0 Z M 640 228 L 631 232 Q 625 237 622 245 Q 620 257 625 264 Q 630 272 641 274 L 648 274 L 658 270 Q 665 265 667 255 L 667 247 L 663 238 Q 657 227 640 228 Z M 372 235 L 369 236 L 368 241 L 371 243 L 402 243 L 403 241 L 402 236 L 400 235 L 372 235 Z M 454 274 Q 428 278 413 292 Q 398 304 390 324 L 386 340 L 386 346 L 368 347 L 351 352 Q 335 358 325 369 Q 305 386 299 418 L 299 442 L 304 460 L 306 463 L 288 484 L 279 504 L 276 520 L 276 535 L 281 557 Q 287 574 301 584 L 502 584 L 504 583 L 506 579 L 505 578 L 505 298 L 501 289 Q 488 271 454 274 Z M 552 274 Q 540 276 533 281 Q 523 287 520 300 L 520 730 L 525 742 L 538 752 L 558 757 L 569 757 L 586 754 Q 602 749 614 739 Q 624 730 631 719 L 640 698 L 644 699 L 657 698 L 672 694 Q 685 689 695 681 Q 718 663 725 628 L 725 607 L 719 588 L 723 585 Q 733 576 740 563 L 744 554 L 748 536 L 748 518 L 745 504 Q 740 486 729 475 L 718 465 L 724 447 L 725 434 L 726 433 Q 725 396 707 377 Q 694 361 675 352 L 659 347 L 641 346 L 639 345 L 639 338 L 635 323 L 623 303 Q 610 286 589 278 L 574 274 L 552 274 Z M 302 277 L 299 281 L 302 286 L 309 289 Q 312 288 311 284 Q 309 278 302 277 Z M 327 278 L 320 286 L 323 289 L 326 289 L 330 286 L 332 283 L 331 280 Q 332 276 327 278 Z M 702 280 L 700 281 Q 697 282 698 287 L 701 289 L 733 289 Q 735 288 734 283 L 731 280 L 702 280 Z M 308 297 L 300 304 Q 299 308 302 309 L 306 308 Q 308 309 307 307 L 310 305 Q 312 304 311 300 L 308 297 Z M 323 297 L 319 301 L 321 305 L 326 309 L 329 309 Q 332 308 331 304 Q 329 298 323 297 Z M 740 326 L 736 329 L 737 334 L 745 339 Q 749 339 748 334 L 740 326 Z M 763 327 L 757 333 L 757 337 L 762 339 L 769 331 L 768 329 Q 767 326 763 327 Z M 744 347 L 740 350 L 736 355 Q 735 359 739 360 L 743 359 L 748 353 L 748 350 L 744 347 Z M 760 347 L 756 351 L 758 355 L 763 359 L 767 359 L 769 356 L 768 354 L 762 347 L 760 347 Z M 256 355 L 253 358 L 254 361 L 262 367 L 265 365 L 264 360 Q 262 355 256 355 Z M 282 355 L 274 364 Q 275 368 280 367 L 286 361 L 286 358 Q 286 355 282 355 Z M 261 375 L 258 377 L 253 384 L 256 387 L 260 387 Q 259 384 262 385 L 266 379 Q 266 375 261 375 Z M 277 376 L 274 379 L 277 385 L 282 388 L 286 386 Q 287 381 284 380 Q 283 375 277 376 Z M 766 414 L 763 418 L 763 448 L 766 451 L 772 450 L 773 448 L 773 417 Q 772 413 766 414 Z M 302 599 L 299 605 L 299 623 L 302 638 Q 307 654 317 667 Q 327 679 341 687 L 361 696 L 370 698 L 379 698 L 380 699 Q 384 700 386 698 L 395 720 L 400 727 Q 409 738 423 746 L 442 754 L 451 756 L 459 756 L 460 757 L 480 755 Q 491 753 498 746 L 505 733 L 505 603 L 504 601 L 503 599 L 302 599 Z M 749 646 L 746 650 L 745 651 L 753 658 L 757 657 L 758 654 L 751 646 L 749 646 Z M 774 646 L 766 654 L 770 658 L 776 655 Q 779 653 778 648 Q 777 645 774 646 Z M 249 654 L 246 657 L 246 660 L 253 666 Q 257 667 258 664 L 256 659 Q 254 654 249 654 Z M 274 654 L 272 655 L 266 662 L 267 665 Q 268 667 272 666 L 278 660 L 278 656 Q 277 653 274 654 Z M 753 667 Q 746 669 746 678 Q 747 680 752 679 L 758 673 L 758 670 Q 757 666 753 667 Z M 770 667 L 766 671 L 769 676 Q 770 680 777 679 L 779 676 L 778 673 L 772 667 L 770 667 Z M 255 674 L 253 675 L 246 683 L 246 685 Q 247 688 252 687 L 258 681 L 258 677 L 255 674 Z M 269 675 L 266 678 Q 268 684 273 687 Q 277 688 278 685 L 276 680 Q 274 675 269 675 Z M 719 716 L 717 717 L 712 723 L 712 726 Q 713 728 717 728 L 723 722 L 723 719 Q 723 716 719 716 Z M 694 717 L 691 721 L 698 728 Q 702 729 703 726 L 701 721 Q 700 716 694 717 Z M 321 719 L 314 722 Q 308 726 306 734 Q 305 744 309 749 Q 313 755 322 757 Q 332 758 337 754 Q 342 751 344 744 Q 346 732 341 727 Q 336 718 321 719 Z M 700 737 L 697 739 L 691 746 L 692 749 Q 691 752 697 750 L 702 744 L 703 744 L 703 738 L 700 737 Z M 716 737 L 714 738 Q 711 739 712 743 L 719 749 L 722 749 L 724 746 L 722 742 L 716 737 Z M 627 758 L 618 762 L 611 772 Q 610 783 614 789 Q 618 795 627 796 L 633 796 L 641 793 L 647 786 L 649 777 Q 648 769 644 765 Q 639 758 627 758 Z " /><path fill="rgb(252,253,254)" stroke="rgb(252,253,254)" stroke-width="2" opacity="1" d="M 639.5 238 Q 651.3 236.2 655 242.5 Q 658.5 246.5 657 255.5 L 650.5 263 Q 647 265.5 639.5 264 L 633 258.5 Q 629.8 255.2 631 247.5 L 637.5 239 L 639.5 238 Z " /><path fill="rgb(252,253,254)" stroke="rgb(252,253,254)" stroke-width="2" opacity="1" d="M 457.5 283 L 469.5 283 L 479.5 285 Q 488.5 287.4 493 294.5 L 495 298.5 Q 493.5 304 496 305.5 L 496 334.5 L 495 335.5 L 495 434.5 L 496 435.5 L 496 450.5 L 495 451.5 L 495 465.5 L 496 466.5 L 496 480.5 L 495 481.5 L 494.5 544 L 416.5 443 L 413.5 443 L 409 447.5 L 335 545.5 L 310.5 575 L 308.5 576 L 301 571.5 Q 292.4 561.1 288 546.5 L 286 535.5 L 286 518.5 L 288 507.5 L 295 490.5 Q 301.3 479.8 310.5 472 L 323.5 484 L 327.5 485 L 331 482.5 L 332 477.5 L 321 468.5 Q 307.7 453.3 308 424.5 L 311 408.5 L 317 394.5 Q 324 382 334.5 373 Q 346.3 363.3 362.5 358 L 372.5 356 L 386 356 L 390 371 L 395.5 372 Q 399.5 371.5 399 366.5 Q 393.8 356.8 396 339.5 Q 401.1 312.6 419.5 299 L 435.5 289 L 457.5 283 Z M 355 400 L 345 404 L 336 414 L 333 425 L 334 434 L 338 442 Q 343 449 353 451 Q 367 453 374 447 L 381 440 L 385 427 Q 384 415 378 409 L 367 401 L 355 400 Z " /><path fill="rgb(252,253,254)" stroke="rgb(252,253,254)" stroke-width="2" opacity="1" d="M 555.5 283 L 568.5 283 L 587.5 288 Q 605.6 295.9 617 310.5 L 627 328.5 L 630 341.5 L 630 354.5 L 626 368.5 L 628.5 372 Q 633.8 373.3 635 370.5 L 639 356 L 652.5 356 L 668.5 360 Q 688 368 700 383.5 Q 709.2 395.3 714 411.5 L 716 422.5 L 716 435.5 L 711 455.5 Q 706.6 467.1 697.5 474 L 693 477.5 Q 692 484 696.5 485 L 700.5 484 L 711 473.5 Q 710.3 471.3 712.5 472 Q 727.1 482.9 734 501.5 L 738 516.5 L 738 537.5 Q 733.5 562.5 717.5 576 L 708.5 581 L 694.5 582 Q 693 579.5 687.5 581 Q 684 582 685 587.5 L 689.5 591 L 699.5 592 L 710 590 L 715 604.5 L 716 620.5 L 713 636.5 L 706 652.5 Q 699.1 664.7 688.5 673 Q 677.5 682.5 661.5 687 L 652.5 689 L 636.5 689 L 634.5 688 L 630 691.5 Q 624.5 720 604.5 734 L 582.5 745 L 573.5 747 L 553.5 747 Q 541.2 744.8 534 737.5 L 530 728.5 L 530 665.5 L 537.5 672 L 547.5 678 L 556.5 681 L 567 682 L 565 692.5 L 565 699.5 L 568 712.5 L 573.5 720 Q 578.6 720.6 580 717.5 L 580 714.5 L 575 702.5 L 575 689.5 L 577 681.5 L 579.5 679 Q 593.6 675.1 601 664.5 L 607 649.5 L 606 647 L 599.5 646 L 594 657.5 L 588.5 664 L 572.5 672 L 560.5 672 Q 545.8 668.8 538 658.5 L 532 647.5 L 530 637.5 L 530 606 Q 532.7 604.9 532 607.5 Q 539.8 617.2 552.5 622 L 563.5 625 L 575.5 625 L 587.5 622 L 608.5 610 L 612.5 609 L 631.5 609 Q 645.5 613 654 622.5 L 663.5 639 Q 668.8 640.3 670 637.5 L 671 633.5 Q 666.1 618.4 654.5 610 Q 646.8 603.2 635.5 600 L 630.5 599 L 614.5 599 L 602.5 602 L 587.5 611 L 577.5 615 L 562.5 615 Q 547.8 611.8 540 601.5 L 533 588.5 L 530 571.5 L 533 556.5 Q 537 545.5 545.5 539 L 558.5 532 L 567.5 530 L 575.5 530 L 577 528.5 Q 578 523 574.5 522 L 566.5 521 Q 544.2 524.7 532 538.5 L 530.5 541 L 530 455.5 L 534 458.5 L 538.5 464 L 554.5 473 L 563.5 475 L 575.5 475 L 591 470 L 592 465.5 L 591 463 L 586.5 461 L 577.5 465 L 568.5 466 L 555.5 463 Q 546.6 459.4 541 452.5 Q 534.8 445.7 532 435.5 Q 529.5 428 531 416.5 Q 534.1 400.1 545.5 392 L 561.5 384 L 573.5 383 L 576.5 384 L 581 380.5 L 581 377.5 L 577 369.5 L 577 356.5 Q 579.1 345.6 586 339.5 L 586 335.5 Q 585.5 331.5 580.5 332 L 576 335.5 L 568 351.5 L 567 364.5 L 569 372.5 L 557.5 375 L 543.5 381 L 532 391.5 L 530.5 394 L 530 342 L 537.5 341 L 542 337.5 L 539.5 332 Q 532.7 331.1 530 333 L 530 300.5 Q 531.9 292.9 537.5 289 L 543.5 286 L 555.5 283 Z M 634 397 L 622 400 L 605 411 L 603 414 L 600 417 L 591 417 L 582 420 L 572 428 L 573 432 L 577 434 L 588 428 L 597 426 Q 613 426 622 433 Q 633 441 636 459 Q 636 476 629 486 L 619 495 L 606 499 L 603 502 L 604 507 L 613 511 Q 624 519 627 537 Q 627 554 619 563 Q 611 573 595 576 L 582 575 L 573 570 L 570 570 Q 566 572 566 577 L 570 580 L 583 585 L 600 585 Q 614 582 623 573 L 630 564 Q 634 553 640 546 L 655 535 L 670 531 Q 684 531 693 537 L 696 536 L 698 533 L 697 530 L 691 525 L 682 522 L 678 522 L 669 518 Q 661 513 657 504 L 655 489 Q 653 485 647 486 L 646 489 L 646 499 L 648 507 Q 652 517 659 524 Q 645 527 637 535 L 635 534 L 633 523 L 629 515 L 622 506 Q 619 507 620 504 L 627 501 L 639 488 L 645 474 Q 644 468 646 467 Q 646 446 637 436 Q 629 424 616 419 Q 611 420 612 418 Q 619 410 632 407 L 646 407 L 658 412 L 661 412 Q 665 411 664 405 Q 654 396 634 397 Z " /><path fill="rgb(252,253,254)" stroke="rgb(252,253,254)" stroke-width="2" opacity="1" d="M 353.5 410 L 363.5 410 L 371 414 Q 375.2 418.5 375 428.5 Q 373.4 435.5 368.5 439 Q 364.4 442.9 355.5 442 L 345 435.5 L 342 425.5 L 345 416.5 L 349.5 412 L 353.5 410 Z " /><path fill="rgb(252,253,254)" stroke="rgb(252,253,254)" stroke-width="2" opacity="1" d="M 414.5 456 L 493 558.5 L 495 561.5 L 495 574 L 325.5 574 L 325 572.5 L 414.5 456 Z " /><path fill="rgb(252,253,254)" stroke="rgb(252,253,254)" stroke-width="2" opacity="1" d="M 309 609 L 495 609 L 495 729.5 Q 493.6 737 488.5 741 L 480.5 745 L 471.5 747 L 454.5 747 Q 422.9 741.1 407 719.5 L 398 703.5 L 396 693.5 L 391.5 688 L 373.5 689 L 355.5 684 L 344.5 678 L 331 668 L 320 653.5 L 313 639.5 L 309 623.5 L 309 609 Z " /><path fill="rgb(252,253,254)" stroke="rgb(252,253,254)" stroke-width="2" opacity="1" d="M 321.5 729 Q 330.5 727.5 333 732.5 L 334 741.5 L 330.5 746 L 321.5 747 L 317 743.5 L 315 737.5 L 319.5 730 L 321.5 729 Z " /><path fill="rgb(252,253,254)" stroke="rgb(252,253,254)" stroke-width="2" opacity="1" d="M 627.5 768 Q 636.1 766.9 638 772.5 L 639 778.5 L 634.5 785 L 626.5 786 L 622 782.5 L 621 773.5 L 624.5 769 L 627.5 768 Z " /></svg>

